<svg width="20" height="16" viewBox="0 0 20 16" fill="none" xmlns="http://www.w3.org/2000/svg">
<path fill-rule="evenodd" clip-rule="evenodd" d="M11.2929 15.7071C10.9024 15.3166 10.9024 14.6834 11.2929 14.2929L16.5858 9L1 9C0.447716 9 6.511e-07 8.55228 6.99382e-07 8C7.47664e-07 7.44771 0.447717 7 1 7L16.5858 7L11.2929 1.70711C10.9024 1.31658 10.9024 0.683417 11.2929 0.292893C11.6834 -0.0976322 12.3166 -0.0976321 12.7071 0.292893L19.7071 7.29289C20.0976 7.68342 20.0976 8.31658 19.7071 8.70711L12.7071 15.7071C12.3166 16.0976 11.6834 16.0976 11.2929 15.7071Z" fill="#D7C3FA"/>
</svg>
